<?xml version="1.0" standalone="no"?>
<!DOCTYPE svg PUBLIC "-//W3C//DTD SVG 20010904//EN"
 "http://www.w3.org/TR/2001/REC-SVG-20010904/DTD/svg10.dtd">
<svg version="1.0" xmlns="http://www.w3.org/2000/svg"
 width="206.000000pt" height="191.000000pt" viewBox="0 0 206.000000 191.000000"
 preserveAspectRatio="xMidYMid meet">

<g transform="translate(0.000000,191.000000) scale(0.100000,-0.100000)"
fill="#000000" stroke="none">
<path d="M583 1310 c-79 -26 -161 -99 -200 -178 -24 -50 -28 -69 -28 -147 0
-77 4 -98 26 -145 35 -72 99 -136 168 -169 48 -22 70 -26 147 -26 82 0 96 3
155 32 62 32 66 32 104 19 22 -8 41 -13 43 -12 1 2 -5 22 -13 46 -14 39 -14
46 0 66 21 33 19 44 -9 44 -30 0 -60 -42 -51 -71 6 -18 4 -20 -13 -15 -13 4
-38 -5 -72 -26 -50 -31 -59 -33 -144 -33 -103 0 -147 17 -211 80 -63 63 -80
108 -80 210 0 108 18 149 95 218 115 104 275 104 390 0 38 -34 56 -44 77 -41
l28 3 -49 52 c-93 101 -231 136 -363 93z"/>
<path d="M980 1000 c0 -100 3 -120 15 -120 12 0 15 13 15 58 0 63 18 92 56 92
34 0 44 -21 44 -87 0 -49 3 -63 15 -63 24 0 21 131 -3 153 -22 20 -83 22 -100
5 -9 -9 -12 -2 -12 35 0 35 -4 47 -15 47 -12 0 -15 -20 -15 -120z"/>
<path d="M1430 1004 c0 -104 9 -124 55 -124 22 0 35 5 35 13 0 7 -12 13 -27
12 -27 0 -28 2 -31 63 -3 61 -2 62 23 62 14 0 25 5 25 10 0 6 -11 10 -25 10
-18 0 -25 5 -25 20 0 11 -7 20 -15 20 -12 0 -15 -16 -15 -86z"/>
<path d="M802 1027 c-33 -35 -30 -99 4 -126 31 -25 96 -28 114 -6 19 23 1 39
-21 19 -26 -24 -69 -9 -88 30 -12 25 -11 31 6 55 24 31 47 37 79 20 28 -15 42
-6 24 16 -20 24 -92 20 -118 -8z"/>
<path d="M1215 1025 c-71 -70 17 -182 106 -135 13 7 19 7 19 0 0 -5 7 -10 15
-10 12 0 15 16 15 85 0 69 -3 85 -15 85 -8 0 -15 -5 -15 -12 0 -9 -3 -9 -12 0
-22 22 -86 14 -113 -13z m105 -15 c11 -11 20 -31 20 -45 0 -30 -32 -65 -60
-65 -28 0 -60 35 -60 65 0 30 32 65 60 65 11 0 29 -9 40 -20z"/>
<path d="M523 993 c-18 -7 -16 -40 3 -47 21 -8 34 1 34 24 0 19 -17 30 -37 23z"/>
<path d="M650 984 c-11 -12 -10 -18 3 -32 16 -15 18 -15 34 0 13 14 14 20 3
32 -7 9 -16 16 -20 16 -4 0 -13 -7 -20 -16z"/>
<path d="M1093 796 c-36 -31 -39 -95 -5 -128 25 -26 97 -32 111 -9 7 10 9 9
14 -3 4 -9 11 -16 17 -16 6 0 10 35 10 90 0 73 -3 90 -15 90 -8 0 -15 -5 -15
-10 0 -7 -6 -7 -19 0 -32 17 -68 12 -98 -14z m107 -25 c26 -50 1 -101 -50
-101 -30 0 -60 30 -60 60 0 9 7 26 16 38 20 29 79 31 94 3z"/>
<path d="M1308 813 c-1 -5 -2 -59 -2 -120 -1 -84 2 -113 12 -113 8 0 12 16 12
44 l0 44 30 -15 c37 -18 84 -9 105 20 8 12 15 40 15 63 0 34 -5 47 -26 63 -30
23 -65 27 -97 10 -16 -9 -22 -9 -25 0 -4 12 -21 15 -24 4z m140 -55 c21 -45
-8 -88 -59 -88 -33 0 -52 22 -52 60 0 43 20 62 62 58 28 -2 39 -9 49 -30z"/>
<path d="M1530 700 c0 -100 3 -120 15 -120 11 0 15 12 15 45 l0 44 28 -16 c77
-44 159 59 107 134 -19 28 -75 39 -106 22 -17 -9 -24 -9 -27 0 -2 6 -10 11
-18 11 -11 0 -14 -23 -14 -120z m134 74 c37 -36 7 -104 -45 -104 -30 0 -59 31
-59 64 0 48 70 75 104 40z"/>
</g>
</svg>
